<?xml version="1.0" encoding="utf-8"?>
<!-- Generator: Adobe Illustrator 28.1.0, SVG Export Plug-In . SVG Version: 6.00 Build 0)  -->
<svg version="1.1" id="Camada_1" xmlns="http://www.w3.org/2000/svg" xmlns:xlink="http://www.w3.org/1999/xlink" width="250px" height="80px"
	 viewBox="0 0 250 80" style="enable-background:new 0 0 250 80;" xml:space="preserve">
<style type="text/css">
	.st0{fill:#78009E;}
	.st1{fill:#FFFFFF;}
</style>
<rect x="-5.6" y="-5.4" class="st0" width="261.2" height="90.9"/>
<g id="Vivo_Valoriza_Branco">
	<g>
		<g>
			<path class="st1" d="M85.5,30h2.8L92,39c1.7,4.3,2.9,7.4,3.3,8.5c0.1,0.4,0.2,0.5,0.5,0.5s0.3-0.2,0.5-0.5
				c0.4-1.2,1.5-4.2,3.3-8.5l3.4-8.5c0.1-0.4,0.3-0.5,0.6-0.5h2.2l-8.6,21.2h-2.9L85.5,30z"/>
			<path class="st1" d="M104.8,47.3c0-2.3,1.5-4.1,5.6-4.6l4.4-0.6v-0.7c0-2.3-1.2-3.4-3.3-3.4c-2,0-3.4,0.7-4.7,1.9l-1.6-1.7
				c1.5-1.5,3.5-2.5,6.4-2.5c4,0,5.6,2.2,5.6,5.3v10.1h-2.1c-0.3,0-0.4-0.1-0.4-0.4v-1.5c0-0.2-0.1-0.3-0.2-0.3
				c-0.1,0-0.2,0.1-0.4,0.3c-1,1.5-2.6,2.2-4.7,2.2C106.7,51.5,104.8,49.8,104.8,47.3z M110.4,49.4c2.6,0,4.4-1.4,4.4-4v-1.1
				c0-0.4-0.1-0.5-0.5-0.4l-3.8,0.5c-2.4,0.3-3.2,1.3-3.2,2.6C107.3,48.4,108.3,49.4,110.4,49.4z"/>
			<path class="st1" d="M120.5,50.8V29.1h2.1c0.2,0,0.4,0.1,0.4,0.4v21.7h-2.1C120.6,51.2,120.5,51.1,120.5,50.8z"/>
			<path class="st1" d="M125.5,43.6c0-4.7,2.8-7.9,7.4-7.9s7.4,3.2,7.4,7.9c0,4.7-2.8,7.9-7.4,7.9C128.3,51.5,125.5,48.3,125.5,43.6
				z M132.9,49.3c3.1,0,4.8-2.3,4.8-5.7s-1.7-5.7-4.8-5.7c-3.1,0-4.8,2.3-4.8,5.7C128.1,47.1,129.7,49.3,132.9,49.3z"/>
			<path class="st1" d="M142.9,36.1h2.1c0.3,0,0.4,0.1,0.4,0.4v1.7c0,0.2,0.1,0.3,0.2,0.3c0.1,0,0.2-0.1,0.4-0.3
				c0.8-1.3,1.9-2.4,4.4-2.4h0.5v2.5h-0.7c-3.3,0-4.8,1.6-4.8,4.8v8.1h-2.5V36.1z"/>
			<path class="st1" d="M154,29.1c1,0,1.6,0.7,1.6,1.7c0,1-0.7,1.7-1.6,1.7c-1,0-1.6-0.7-1.6-1.7C152.3,29.8,153,29.1,154,29.1z
				 M152.7,36.1h2.1c0.3,0,0.4,0.1,0.4,0.4v14.7h-2.5V36.1z"/>
			<path class="st1" d="M157.8,48.8l8.9-10.5h-9v-2.2H170v2L160.8,49h9.4v2.2h-12.7v-1.5C157.5,49.3,157.6,49.1,157.8,48.8z"/>
			<path class="st1" d="M171.9,47.3c0-2.3,1.5-4.1,5.6-4.6l4.4-0.6v-0.7c0-2.3-1.2-3.4-3.3-3.4c-2,0-3.4,0.7-4.7,1.9l-1.6-1.7
				c1.5-1.5,3.5-2.5,6.4-2.5c4,0,5.6,2.2,5.6,5.3v10.1h-2.1c-0.3,0-0.4-0.1-0.4-0.4v-1.5c0-0.2-0.1-0.3-0.2-0.3
				c-0.1,0-0.2,0.1-0.4,0.3c-1,1.5-2.6,2.2-4.7,2.2C173.8,51.5,171.9,49.8,171.9,47.3z M177.6,49.4c2.6,0,4.4-1.4,4.4-4v-1.1
				c0-0.4-0.1-0.5-0.5-0.4l-3.8,0.5c-2.4,0.3-3.2,1.3-3.2,2.6C174.5,48.4,175.4,49.4,177.6,49.4z"/>
		</g>
	</g>
	<path class="st1" d="M81.8,37.8c-0.2-0.8-1-1.3-1.8-1.2c0,0-3.1,0.7-3.3,0.8c-0.5,0.1-1,0.2-1.2-0.2c-0.2-0.5,0.1-0.6,0.6-0.9
		c0.2-0.1,0.5-0.3,0.8-0.6c0.9-0.9,1.2-2.2,1.2-3c0-2.3-1.9-4.2-4.3-4.2s-4.3,1.9-4.3,4.2c0,0.8,0.3,2.1,1.2,3
		c0.3,0.3,0.6,0.5,0.8,0.6c0.4,0.3,0.7,0.5,0.6,0.9s-0.7,0.3-1.2,0.2c-0.2,0-3.2-0.8-3.3-0.8c-0.8-0.2-1.6,0.4-1.8,1.2
		c0,0-0.2,1-0.2,1c-0.2,0.8,0.3,1.6,1.1,1.9c0,0,3.4,0.8,3.4,0.8c0.6,0.2,1,0.5,1,1.1c0,0.3-0.2,0.6-0.4,0.8c0,0-3.7,4.5-3.7,4.6
		c-0.5,0.7-0.4,1.6,0.3,2.2c0,0,0.8,0.7,0.8,0.7c0.7,0.5,1.6,0.5,2.2-0.2c0,0,2.3-2.8,2.5-3.1s0.5-0.8,1-0.8s0.7,0.5,1,0.8
		s2.5,3.1,2.5,3.1c0.6,0.6,1.5,0.7,2.2,0.2c0,0,0.8-0.7,0.8-0.7c0.7-0.5,0.8-1.5,0.3-2.2c0,0-3.7-4.6-3.7-4.6
		c-0.2-0.2-0.4-0.5-0.4-0.8c0-0.6,0.4-0.9,1-1.1c0,0,3.4-0.8,3.4-0.8c0.8-0.2,1.3-1.1,1.1-1.9C82.1,38.8,81.8,37.8,81.8,37.8z"/>
</g>
</svg>
